<svg width="44" height="39" viewBox="0 0 44 39" fill="none" xmlns="http://www.w3.org/2000/svg">
    <path d="M3.58566 22.3108C3.58566 22.3108 3.58566 25.1108 3.58566 25.3866C3.58566 25.6614 2.51813 26.0742 1.36991 27.6044C0.222702 29.1337 0 30.805 0 31.9348C0 32.1422 0 32.3598 0 32.5855C0 33.178 0 33.8288 0 34.5255C0 34.6593 0.115434 34.7686 0.254366 34.7686H6.18244C6.32444 34.7686 6.43783 34.6593 6.43783 34.5234V32.5865V22.3108H3.58566Z" fill="#D6FEFD"/>
    <path d="M6.18244 35.0751H0.254366C0.115434 35.0751 0 35.1854 0 35.3212C0 35.9393 0 36.588 0 37.2581C0 37.394 0.115434 37.5033 0.254366 37.5033H6.18244C6.32444 37.5033 6.43783 37.394 6.43783 37.2571V35.3212C6.43783 35.1864 6.32444 35.0751 6.18244 35.0751Z" fill="white"/>
    <path d="M6.18244 37.8098H0.254366C0.115434 37.8098 0 37.9201 0 38.0539C0 38.6852 0 39.3339 0 39.9928C0 40.1266 0.115434 40.237 0.254366 40.237H6.18244C6.32444 40.237 6.43783 40.1266 6.43783 39.9918V38.0539C6.43783 37.9201 6.32444 37.8098 6.18244 37.8098Z" fill="white"/>
    <path d="M6.18247 37.8098C6.32446 37.8098 6.43786 37.9201 6.43786 38.0539V37.2571C6.43786 37.394 6.32446 37.5033 6.18247 37.5033H0.254395V37.8098H6.18247Z" fill="white"/>
    <path d="M6.18247 35.075C6.32446 35.075 6.43786 35.1864 6.43786 35.3212V34.5234C6.43786 34.6593 6.32446 34.7686 6.18247 34.7686H0.254395V35.075H6.18247Z" fill="white"/>
    <path d="M9.29119 22.3108C9.29119 22.3108 9.29119 25.1108 9.29119 25.3866C9.29119 25.6614 10.3587 26.0742 11.508 27.6044C12.6541 29.1337 12.8779 30.805 12.8779 31.9348C12.8779 32.1422 12.8779 32.3598 12.8779 32.5855C12.8779 33.178 12.8779 33.8288 12.8779 34.5255C12.8779 34.6593 12.7634 34.7686 12.6235 34.7686H6.69338C6.55445 34.7686 6.43799 34.6593 6.43799 34.5234V32.5865V22.3108H9.29119Z" fill="#BDEEED"/>
    <path d="M6.69338 35.0751H12.6235C12.7634 35.0751 12.8779 35.1854 12.8779 35.3212C12.8779 35.9393 12.8779 36.588 12.8779 37.2581C12.8779 37.394 12.7634 37.5033 12.6235 37.5033H6.69338C6.55445 37.5033 6.43799 37.394 6.43799 37.2571V35.3212C6.43799 35.1864 6.55445 35.0751 6.69338 35.0751Z" fill="white"/>
    <path d="M6.69338 37.8098H12.6235C12.7634 37.8098 12.8779 37.9201 12.8779 38.0539C12.8779 38.6852 12.8779 39.3339 12.8779 39.9928C12.8779 40.1266 12.7634 40.237 12.6235 40.237H6.69338C6.55445 40.237 6.43799 40.1266 6.43799 39.9918V38.0539C6.43799 37.9201 6.55445 37.8098 6.69338 37.8098Z" fill="white"/>
    <path d="M6.69338 37.8098C6.55445 37.8098 6.43799 37.9201 6.43799 38.0539V37.2571C6.43799 37.394 6.55445 37.5033 6.69338 37.5033H12.6235V37.8098H6.69338Z" fill="white"/>
    <path d="M6.69338 35.075C6.55445 35.075 6.43799 35.1864 6.43799 35.3212V34.5234C6.43799 34.6593 6.55445 34.7686 6.69338 34.7686H12.6235V35.075H6.69338Z" fill="white"/>
    <path d="M0 31.7448C0 31.9522 0 32.1697 0 32.3955C0 32.988 0 33.6388 0 34.3355C0 34.4693 0.115434 34.5786 0.254366 34.5786V34.885C0.115434 34.885 0 34.9954 0 35.1312C0 35.7493 0 36.398 0 37.0681C0 37.204 0.115434 37.3133 0.254366 37.3133V37.6197C0.115434 37.6197 0 37.7301 0 37.8639C0 38.4952 0 39.1439 0 39.8028C0 39.9366 0.115434 40.0469 0.254366 40.0469V40.3534C0.115434 40.3534 0 40.4627 0 40.5976C0 41.2391 0 41.8857 0 42.5354C0 48.2735 0 54.173 0 56.59C0 60.7518 1.53029 62.4046 3.18827 62.4046C4.84625 62.4046 4.97292 61.7917 6.43783 61.7917C7.90478 61.7917 8.0335 62.4046 9.69046 62.4046C11.3464 62.4046 12.8777 60.7518 12.8777 56.59C12.8777 54.173 12.8777 48.2735 12.8777 42.5354C12.8777 41.8857 12.8777 41.2391 12.8777 40.5976C12.8777 40.4627 12.7633 40.3534 12.6233 40.3534V40.0469C12.7633 40.0469 12.8777 39.9366 12.8777 39.8028C12.8777 39.1439 12.8777 38.4952 12.8777 37.8639C12.8777 37.7301 12.7633 37.6197 12.6233 37.6197V37.3133C12.7633 37.3133 12.8777 37.204 12.8777 37.0681C12.8777 36.398 12.8777 35.7493 12.8777 35.1312C12.8777 34.9954 12.7633 34.885 12.6233 34.885V34.5786C12.7633 34.5786 12.8777 34.4693 12.8777 34.3355C12.8777 33.6388 12.8777 32.988 12.8777 32.3955C12.8777 32.1697 12.8777 31.9522 12.8777 31.7448C12.8777 31.2381 12.8276 30.6221 12.6734 29.9601H0.205333C0.0510786 30.6221 0 31.2381 0 31.7448Z" fill="#87E3FF"/>
    <path d="M7.8489 25.3866C7.89691 25.7871 8.10428 26.1263 8.40769 26.352C8.69678 26.5911 9.05637 26.7688 9.39144 26.9997C10.0677 27.4461 10.6541 28.0703 11.0678 28.7782C11.4785 29.4974 11.7165 30.3095 11.7635 31.1237C11.8074 31.945 11.7093 32.7234 11.6276 33.5192C11.5755 33.1239 11.552 32.7275 11.5142 32.3311C11.4907 31.9317 11.4734 31.5446 11.4059 31.1635C11.2782 30.4035 11.0474 29.6669 10.6622 29.0131C10.2853 28.3471 9.77044 27.7832 9.1759 27.2867C8.88475 27.0334 8.54253 26.8209 8.25138 26.5175C7.96739 26.2131 7.78761 25.7861 7.8489 25.3866Z" fill="white"/>
    <path d="M6.75126 20C6.57964 20 6.2977 20 6.1271 20H3.26573C3.09411 20 2.95312 20.14 2.95312 20.3126V22.7888C2.95312 22.9605 3.09411 23.1014 3.26573 23.1014H6.1271C6.2977 23.1014 6.57964 23.1014 6.75126 23.1014H9.61263C9.78425 23.1014 9.92318 22.9605 9.92318 22.7888V20.3126C9.92318 20.14 9.78425 20 9.61263 20H6.75126Z" fill="white"/>
    <path d="M6.4379 23.8308H2.72559V23.363H6.4379V23.8308Z" fill="#276B8A"/>
    <path d="M10.1524 23.8308H6.43799V23.363H10.1524V23.8308Z" fill="#276B8A"/>
    <path d="M2.24561 34.7154C3.64309 34.5316 5.04159 34.4897 6.44009 34.4815C7.83656 34.4887 9.23609 34.5305 10.6336 34.7154C9.23609 34.9014 7.83656 34.9433 6.44009 34.9504C5.04159 34.9422 3.64309 34.9003 2.24561 34.7154Z" fill="white"/>
    <path d="M2.24561 37.5523C3.64309 37.3685 5.04159 37.3266 6.44009 37.3184C7.83656 37.3245 9.23609 37.3674 10.6336 37.5523C9.23609 37.7383 7.83656 37.7801 6.44009 37.7873C5.04159 37.7791 3.64309 37.7372 2.24561 37.5523Z" fill="white"/>
    <path d="M9.69062 62.5947C8.03366 62.5947 7.90494 61.7881 6.43799 61.7881V40.6231C6.43901 40.6231 6.44003 40.6231 6.44003 40.6231C7.8365 40.616 9.23603 40.5741 10.6335 40.3892C9.23603 40.2033 7.8365 40.1614 6.44003 40.1542C6.44003 40.1542 6.43901 40.1542 6.43799 40.1542V37.7873C6.43901 37.7873 6.44003 37.7873 6.44003 37.7873C7.8365 37.7801 9.23603 37.7383 10.6335 37.5523C9.23603 37.3674 7.8365 37.3245 6.44003 37.3184C6.44003 37.3184 6.43901 37.3184 6.43799 37.3184V34.9504C6.43901 34.9504 6.44003 34.9504 6.44003 34.9504C7.8365 34.9433 9.23603 34.9014 10.6335 34.7155C9.23603 34.5306 7.8365 34.4887 6.44003 34.4815C6.44003 34.4815 6.43901 34.4815 6.43799 34.4815V30.1502H11.1637C11.2689 30.4791 11.3476 30.8193 11.4058 31.1635C11.4732 31.5446 11.4906 31.9317 11.5141 32.3312C11.5519 32.7275 11.5754 33.1239 11.6275 33.5192C11.7092 32.7235 11.8073 31.945 11.7633 31.1237C11.745 30.7968 11.6949 30.4699 11.6152 30.1502H12.6736C12.8278 30.8121 12.8779 31.4281 12.8779 31.9348C12.8779 32.1422 12.8779 32.3598 12.8779 32.5855C12.8779 33.178 12.8779 33.8288 12.8779 34.5255C12.8779 34.6593 12.7634 34.7686 12.6235 34.7686V35.0751C12.7634 35.0751 12.8779 35.1854 12.8779 35.3213C12.8779 35.9393 12.8779 36.588 12.8779 37.2581C12.8779 37.394 12.7634 37.5033 12.6235 37.5033V37.8098C12.7634 37.8098 12.8779 37.9201 12.8779 38.0539C12.8779 38.6852 12.8779 39.3339 12.8779 39.9928C12.8779 40.1266 12.7634 40.237 12.6235 40.237V40.5434C12.7634 40.5434 12.8779 40.6527 12.8779 40.7876C12.8779 41.4291 12.8779 42.0758 12.8779 42.7255C12.8779 48.4635 12.8779 54.363 12.8779 56.78C12.8779 60.9418 11.3466 62.5947 9.69062 62.5947ZM11.6275 41.7938C11.5325 43.4906 11.4865 45.1874 11.4487 46.8853C11.4089 48.581 11.4119 50.2788 11.3935 51.9756L11.4446 57.066C11.4477 57.8996 11.3864 58.7445 11.1749 59.5505C11.0707 59.953 10.9298 60.3493 10.6999 60.6946C10.4741 61.0317 10.1258 61.3249 9.69062 61.3443C9.71616 61.3474 9.74271 61.3474 9.76825 61.3474C10.1738 61.3474 10.5528 61.0889 10.8 60.7692C11.0707 60.4259 11.2526 60.0244 11.3946 59.6158C11.6602 58.7904 11.7633 57.9293 11.8052 57.0701C11.8492 55.3692 11.843 53.6745 11.8624 51.9756C11.843 50.2788 11.8461 48.581 11.8073 46.8853C11.7695 45.1874 11.7235 43.4906 11.6275 41.7938Z" fill="#3F9AC4"/>
    <path d="M11.6274 33.5192C11.5753 33.1239 11.5518 32.7275 11.514 32.3311C11.4905 31.9317 11.4731 31.5446 11.4057 31.1635C11.3475 30.8193 11.2688 30.4791 11.1636 30.1501H11.6151C11.6948 30.4699 11.7448 30.7968 11.7632 31.1237C11.8072 31.945 11.7091 32.7234 11.6274 33.5192Z" fill="#E2FAFA"/>
    <path d="M6.44003 34.9504C6.44003 34.9504 6.43901 34.9504 6.43799 34.9504V34.4815C6.43901 34.4815 6.44003 34.4815 6.44003 34.4815C7.8365 34.4887 9.23603 34.5305 10.6335 34.7154C9.23603 34.9014 7.8365 34.9433 6.44003 34.9504Z" fill="#E2FAFA"/>
    <path d="M6.44003 37.7873C6.44003 37.7873 6.43901 37.7873 6.43799 37.7873V37.3184C6.43901 37.3184 6.44003 37.3184 6.44003 37.3184C7.8365 37.3245 9.23603 37.3674 10.6335 37.5523C9.23603 37.7383 7.8365 37.7801 6.44003 37.7873Z" fill="#E2FAFA"/>
    <path d="M12.5857 12.3108C12.5857 12.3108 12.5857 15.1108 12.5857 15.3866C12.5857 15.6614 11.5181 16.0742 10.3699 17.6044C9.2227 19.1337 9 20.805 9 21.9348C9 22.1422 9 22.3598 9 22.5855C9 23.178 9 23.8288 9 24.5255C9 24.6593 9.11543 24.7686 9.25437 24.7686H15.1824C15.3244 24.7686 15.4378 24.6593 15.4378 24.5234V22.5865V12.3108H12.5857Z" fill="#D6FEFD"/>
    <path d="M15.1824 25.0751H9.25437C9.11543 25.0751 9 25.1854 9 25.3212C9 25.9393 9 26.588 9 27.2581C9 27.394 9.11543 27.5033 9.25437 27.5033H15.1824C15.3244 27.5033 15.4378 27.394 15.4378 27.2571V25.3212C15.4378 25.1864 15.3244 25.0751 15.1824 25.0751Z" fill="white"/>
    <path d="M15.1824 27.8098H9.25437C9.11543 27.8098 9 27.9201 9 28.0539C9 28.6852 9 29.3339 9 29.9928C9 30.1266 9.11543 30.237 9.25437 30.237H15.1824C15.3244 30.237 15.4378 30.1266 15.4378 29.9918V28.0539C15.4378 27.9201 15.3244 27.8098 15.1824 27.8098Z" fill="white"/>
    <path d="M15.1824 30.5434H9.25437C9.11543 30.5434 9 30.6527 9 30.7876C9 31.4291 9 32.0758 9 32.7255C9 38.4635 9 44.363 9 46.78C9 50.9418 10.5303 52.5947 12.1883 52.5947C13.8463 52.5947 13.9729 51.9817 15.4378 51.9817V32.7255V30.7876C15.4378 30.6527 15.3244 30.5434 15.1824 30.5434Z" fill="white"/>
    <path d="M15.1825 27.8098C15.3245 27.8098 15.4379 27.9201 15.4379 28.0539V27.2571C15.4379 27.394 15.3245 27.5033 15.1825 27.5033H9.25439V27.8098H15.1825Z" fill="white"/>
    <path d="M15.1825 30.5434C15.3245 30.5434 15.4379 30.6527 15.4379 30.7876V29.9918C15.4379 30.1266 15.3245 30.237 15.1825 30.237H9.25439V30.5434H15.1825Z" fill="white"/>
    <path d="M15.1825 25.075C15.3245 25.075 15.4379 25.1864 15.4379 25.3212V24.5234C15.4379 24.6593 15.3245 24.7686 15.1825 24.7686H9.25439V25.075H15.1825Z" fill="white"/>
    <path d="M18.2912 12.3108C18.2912 12.3108 18.2912 15.1108 18.2912 15.3866C18.2912 15.6614 19.3587 16.0742 20.508 17.6044C21.6541 19.1337 21.8779 20.805 21.8779 21.9348C21.8779 22.1422 21.8779 22.3598 21.8779 22.5855C21.8779 23.178 21.8779 23.8288 21.8779 24.5255C21.8779 24.6593 21.7634 24.7686 21.6235 24.7686H15.6934C15.5544 24.7686 15.438 24.6593 15.438 24.5234V22.5865V12.3108H18.2912Z" fill="#BDEEED"/>
    <path d="M15.6934 25.0751H21.6235C21.7634 25.0751 21.8779 25.1854 21.8779 25.3212C21.8779 25.9393 21.8779 26.588 21.8779 27.2581C21.8779 27.394 21.7634 27.5033 21.6235 27.5033H15.6934C15.5544 27.5033 15.438 27.394 15.438 27.2571V25.3212C15.438 25.1864 15.5544 25.0751 15.6934 25.0751Z" fill="white"/>
    <path d="M15.6934 27.8098H21.6235C21.7634 27.8098 21.8779 27.9201 21.8779 28.0539C21.8779 28.6852 21.8779 29.3339 21.8779 29.9928C21.8779 30.1266 21.7634 30.237 21.6235 30.237H15.6934C15.5544 30.237 15.438 30.1266 15.438 29.9918V28.0539C15.438 27.9201 15.5544 27.8098 15.6934 27.8098Z" fill="white"/>
    <path d="M15.6934 30.5434H21.6235C21.7634 30.5434 21.8779 30.6527 21.8779 30.7876C21.8779 31.4291 21.8779 32.0758 21.8779 32.7255C21.8779 38.4635 21.8779 44.363 21.8779 46.78C21.8779 50.9418 20.3466 52.5947 18.6906 52.5947C17.0337 52.5947 16.9049 51.9817 15.438 51.9817V32.7255V30.7876C15.438 30.6527 15.5544 30.5434 15.6934 30.5434Z" fill="white"/>
    <path d="M15.6934 27.8098C15.5544 27.8098 15.438 27.9201 15.438 28.0539V27.2571C15.438 27.394 15.5544 27.5033 15.6934 27.5033H21.6235V27.8098H15.6934Z" fill="white"/>
    <path d="M15.6934 30.5434C15.5544 30.5434 15.438 30.6527 15.438 30.7876V29.9918C15.438 30.1266 15.5544 30.237 15.6934 30.237H21.6235V30.5434H15.6934Z" fill="white"/>
    <path d="M15.6934 25.075C15.5544 25.075 15.438 25.1864 15.438 25.3212V24.5234C15.438 24.6593 15.5544 24.7686 15.6934 24.7686H21.6235V25.075H15.6934Z" fill="white"/>
    <path d="M9 21.7448C9 21.9522 9 22.1697 9 22.3955C9 22.988 9 23.6388 9 24.3355C9 24.4693 9.11543 24.5786 9.25437 24.5786V24.885C9.11543 24.885 9 24.9954 9 25.1312C9 25.7493 9 26.398 9 27.0681C9 27.204 9.11543 27.3133 9.25437 27.3133V27.6197C9.11543 27.6197 9 27.7301 9 27.8639C9 28.4952 9 29.1439 9 29.8028C9 29.9366 9.11543 30.0469 9.25437 30.0469V30.3534C9.11543 30.3534 9 30.4627 9 30.5976C9 31.2391 9 31.8857 9 32.5354C9 38.2735 9 44.173 9 46.59C9 50.7518 10.5303 52.4046 12.1883 52.4046C13.8463 52.4046 13.9729 51.7917 15.4378 51.7917C16.9048 51.7917 17.0335 52.4046 18.6905 52.4046C20.3464 52.4046 21.8777 50.7518 21.8777 46.59C21.8777 44.173 21.8777 38.2735 21.8777 32.5354C21.8777 31.8857 21.8777 31.2391 21.8777 30.5976C21.8777 30.4627 21.7633 30.3534 21.6233 30.3534V30.0469C21.7633 30.0469 21.8777 29.9366 21.8777 29.8028C21.8777 29.1439 21.8777 28.4952 21.8777 27.8639C21.8777 27.7301 21.7633 27.6197 21.6233 27.6197V27.3133C21.7633 27.3133 21.8777 27.204 21.8777 27.0681C21.8777 26.398 21.8777 25.7493 21.8777 25.1312C21.8777 24.9954 21.7633 24.885 21.6233 24.885V24.5786C21.7633 24.5786 21.8777 24.4693 21.8777 24.3355C21.8777 23.6388 21.8777 22.988 21.8777 22.3955C21.8777 22.1697 21.8777 21.9522 21.8777 21.7448C21.8777 21.2381 21.8276 20.6221 21.6734 19.9601H9.20533C9.05108 20.6221 9 21.2381 9 21.7448Z" fill="#87E3FF"/>
    <path d="M20.6273 31.7938C20.7233 33.4906 20.7693 35.1874 20.8071 36.8852C20.8459 38.581 20.8428 40.2788 20.8622 41.9756C20.8428 43.6745 20.849 45.3692 20.805 47.0701C20.7632 47.9292 20.66 48.7904 20.3944 49.6158C20.2524 50.0244 20.0705 50.4259 19.7998 50.7691C19.5373 51.1093 19.1256 51.38 18.6904 51.3443C19.1256 51.3249 19.4739 51.0317 19.6997 50.6946C19.9296 50.3493 20.0705 49.9529 20.1747 49.5504C20.3862 48.7444 20.4475 47.8996 20.4444 47.066L20.3933 41.9756C20.4117 40.2788 20.4087 38.581 20.4485 36.8852C20.4863 35.1874 20.5323 33.4906 20.6273 31.7938Z" fill="white"/>
    <path d="M16.8489 15.3866C16.8969 15.7871 17.1043 16.1263 17.4077 16.352C17.6968 16.5911 18.0564 16.7688 18.3914 16.9997C19.0677 17.4461 19.6541 18.0703 20.0678 18.7782C20.4785 19.4974 20.7165 20.3095 20.7635 21.1237C20.8074 21.945 20.7093 22.7234 20.6276 23.5192C20.5755 23.1239 20.552 22.7275 20.5142 22.3311C20.4907 21.9317 20.4734 21.5446 20.4059 21.1635C20.2782 20.4035 20.0474 19.6669 19.6622 19.0131C19.2853 18.3471 18.7704 17.7832 18.1759 17.2867C17.8848 17.0334 17.5425 16.8209 17.2514 16.5175C16.9674 16.2131 16.7876 15.7861 16.8489 15.3866Z" fill="white"/>
    <path d="M15.7513 10C15.5796 10 15.2977 10 15.1271 10H12.2657C12.0941 10 11.9531 10.14 11.9531 10.3126V12.7888C11.9531 12.9605 12.0941 13.1014 12.2657 13.1014H15.1271C15.2977 13.1014 15.5796 13.1014 15.7513 13.1014H18.6126C18.7843 13.1014 18.9232 12.9605 18.9232 12.7888V10.3126C18.9232 10.14 18.7843 10 18.6126 10H15.7513Z" fill="white"/>
    <path d="M15.4379 13.8308H11.7256V13.363H15.4379V13.8308Z" fill="#276B8A"/>
    <path d="M19.1524 13.8308H15.438V13.363H19.1524V13.8308Z" fill="#276B8A"/>
    <path d="M11.2456 24.7154C12.6431 24.5316 14.0416 24.4897 15.4401 24.4815C16.8366 24.4887 18.2361 24.5305 19.6336 24.7154C18.2361 24.9014 16.8366 24.9433 15.4401 24.9504C14.0416 24.9422 12.6431 24.9003 11.2456 24.7154Z" fill="white"/>
    <path d="M11.2456 27.5523C12.6431 27.3685 14.0416 27.3266 15.4401 27.3184C16.8366 27.3245 18.2361 27.3674 19.6336 27.5523C18.2361 27.7383 16.8366 27.7801 15.4401 27.7873C14.0416 27.7791 12.6431 27.7372 11.2456 27.5523Z" fill="white"/>
    <path d="M11.2456 30.3892C12.6431 30.2043 14.0416 30.1624 15.4401 30.1542C16.8366 30.1614 18.2361 30.2032 19.6336 30.3892C18.2361 30.5741 16.8366 30.616 15.4401 30.6231C14.0416 30.6149 12.6431 30.573 11.2456 30.3892Z" fill="white"/>
    <path d="M18.6906 52.5947C17.0337 52.5947 16.9049 51.7881 15.438 51.7881V30.6231C15.439 30.6231 15.44 30.6231 15.44 30.6231C16.8365 30.616 18.236 30.5741 19.6335 30.3892C18.236 30.2033 16.8365 30.1614 15.44 30.1542C15.44 30.1542 15.439 30.1542 15.438 30.1542V27.7873C15.439 27.7873 15.44 27.7873 15.44 27.7873C16.8365 27.7801 18.236 27.7383 19.6335 27.5523C18.236 27.3674 16.8365 27.3245 15.44 27.3184C15.44 27.3184 15.439 27.3184 15.438 27.3184V24.9504C15.439 24.9504 15.44 24.9504 15.44 24.9504C16.8365 24.9433 18.236 24.9014 19.6335 24.7155C18.236 24.5306 16.8365 24.4887 15.44 24.4815C15.44 24.4815 15.439 24.4815 15.438 24.4815V20.1502H20.1637C20.2689 20.4791 20.3476 20.8193 20.4058 21.1635C20.4732 21.5446 20.4906 21.9317 20.5141 22.3312C20.5519 22.7275 20.5754 23.1239 20.6275 23.5192C20.7092 22.7235 20.8073 21.945 20.7633 21.1237C20.745 20.7968 20.6949 20.4699 20.6152 20.1502H21.6736C21.8278 20.8121 21.8779 21.4281 21.8779 21.9348C21.8779 22.1422 21.8779 22.3598 21.8779 22.5855C21.8779 23.178 21.8779 23.8288 21.8779 24.5255C21.8779 24.6593 21.7634 24.7686 21.6235 24.7686V25.0751C21.7634 25.0751 21.8779 25.1854 21.8779 25.3213C21.8779 25.9393 21.8779 26.588 21.8779 27.2581C21.8779 27.394 21.7634 27.5033 21.6235 27.5033V27.8098C21.7634 27.8098 21.8779 27.9201 21.8779 28.0539C21.8779 28.6852 21.8779 29.3339 21.8779 29.9928C21.8779 30.1266 21.7634 30.237 21.6235 30.237V30.5434C21.7634 30.5434 21.8779 30.6527 21.8779 30.7876C21.8779 31.4291 21.8779 32.0758 21.8779 32.7255C21.8779 38.4635 21.8779 44.363 21.8779 46.78C21.8779 50.9418 20.3466 52.5947 18.6906 52.5947ZM20.6275 31.7938C20.5325 33.4906 20.4865 35.1874 20.4487 36.8853C20.4089 38.581 20.4119 40.2788 20.3935 41.9756L20.4446 47.066C20.4477 47.8996 20.3864 48.7445 20.1749 49.5505C20.0707 49.953 19.9298 50.3493 19.6999 50.6946C19.4741 51.0317 19.1258 51.3249 18.6906 51.3443C18.7162 51.3474 18.7427 51.3474 18.7682 51.3474C19.1738 51.3474 19.5528 51.0889 19.8 50.7692C20.0707 50.4259 20.2526 50.0244 20.3946 49.6158C20.6602 48.7904 20.7633 47.9293 20.8052 47.0701C20.8492 45.3692 20.843 43.6745 20.8624 41.9756C20.843 40.2788 20.8461 38.581 20.8073 36.8853C20.7695 35.1874 20.7235 33.4906 20.6275 31.7938Z" fill="#3F9AC4"/>
    <path d="M18.7681 51.3474C18.7425 51.3474 18.716 51.3473 18.6904 51.3443C19.1256 51.3249 19.4739 51.0317 19.6997 50.6946C19.9296 50.3493 20.0705 49.9529 20.1747 49.5505C20.3862 48.7445 20.4475 47.8996 20.4444 47.066L20.3933 41.9756C20.4117 40.2788 20.4087 38.581 20.4485 36.8852C20.4863 35.1874 20.5323 33.4906 20.6273 31.7938C20.7233 33.4906 20.7693 35.1874 20.8071 36.8852C20.8459 38.581 20.8428 40.2788 20.8622 41.9756C20.8428 43.6745 20.849 45.3692 20.805 47.0701C20.7632 47.9292 20.66 48.7904 20.3944 49.6158C20.2524 50.0244 20.0705 50.4259 19.7998 50.7692C19.5526 51.0889 19.1736 51.3474 18.7681 51.3474Z" fill="#E2FAFA"/>
    <path d="M20.6274 23.5192C20.5753 23.1239 20.5518 22.7275 20.514 22.3311C20.4905 21.9317 20.4731 21.5446 20.4057 21.1635C20.3475 20.8193 20.2688 20.4791 20.1636 20.1501H20.6151C20.6948 20.4699 20.7448 20.7968 20.7632 21.1237C20.8072 21.945 20.7091 22.7234 20.6274 23.5192Z" fill="#E2FAFA"/>
    <path d="M15.44 24.9504C15.44 24.9504 15.439 24.9504 15.438 24.9504V24.4815C15.439 24.4815 15.44 24.4815 15.44 24.4815C16.8365 24.4887 18.236 24.5305 19.6335 24.7154C18.236 24.9014 16.8365 24.9433 15.44 24.9504Z" fill="#E2FAFA"/>
    <path d="M15.44 27.7873C15.44 27.7873 15.439 27.7873 15.438 27.7873V27.3184C15.439 27.3184 15.44 27.3184 15.44 27.3184C16.8365 27.3245 18.236 27.3674 19.6335 27.5523C18.236 27.7383 16.8365 27.7801 15.44 27.7873Z" fill="#E2FAFA"/>
    <path d="M15.44 30.6231C15.44 30.6231 15.439 30.6231 15.438 30.6231V30.1542C15.439 30.1542 15.44 30.1542 15.44 30.1542C16.8365 30.1614 18.236 30.2032 19.6335 30.3892C18.236 30.5741 16.8365 30.616 15.44 30.6231Z" fill="#E2FAFA"/>
    <path d="M22.5857 2.31076C22.5857 2.31076 22.5857 5.11082 22.5857 5.38664C22.5857 5.66143 21.5181 6.07416 20.3699 7.60445C19.2227 9.13371 19 10.805 19 11.9348C19 12.1422 19 12.3598 19 12.5855C19 13.178 19 13.8288 19 14.5255C19 14.6593 19.1154 14.7686 19.2544 14.7686H25.1824C25.3244 14.7686 25.4378 14.6593 25.4378 14.5234V12.5865V2.31076H22.5857Z" fill="#D6FEFD"/>
    <path d="M25.1824 15.0751H19.2544C19.1154 15.0751 19 15.1854 19 15.3212C19 15.9393 19 16.588 19 17.2581C19 17.394 19.1154 17.5033 19.2544 17.5033H25.1824C25.3244 17.5033 25.4378 17.394 25.4378 17.2571V15.3212C25.4378 15.1864 25.3244 15.0751 25.1824 15.0751Z" fill="white"/>
    <path d="M25.1824 17.8098H19.2544C19.1154 17.8098 19 17.9201 19 18.0539C19 18.6852 19 19.3339 19 19.9928C19 20.1266 19.1154 20.237 19.2544 20.237H25.1824C25.3244 20.237 25.4378 20.1266 25.4378 19.9918V18.0539C25.4378 17.9201 25.3244 17.8098 25.1824 17.8098Z" fill="white"/>
    <path d="M25.1824 20.5434H19.2544C19.1154 20.5434 19 20.6527 19 20.7876C19 21.4291 19 22.0758 19 22.7255C19 28.4635 19 34.363 19 36.78C19 40.9418 20.5303 42.5947 22.1883 42.5947C23.8463 42.5947 23.9729 41.9817 25.4378 41.9817V22.7255V20.7876C25.4378 20.6527 25.3244 20.5434 25.1824 20.5434Z" fill="white"/>
    <path d="M25.1825 17.8098C25.3245 17.8098 25.4379 17.9201 25.4379 18.0539V17.2571C25.4379 17.394 25.3245 17.5033 25.1825 17.5033H19.2544V17.8098H25.1825Z" fill="white"/>
    <path d="M25.1825 20.5434C25.3245 20.5434 25.4379 20.6527 25.4379 20.7876V19.9918C25.4379 20.1266 25.3245 20.237 25.1825 20.237H19.2544V20.5434H25.1825Z" fill="white"/>
    <path d="M25.1825 15.075C25.3245 15.075 25.4379 15.1864 25.4379 15.3212V14.5234C25.4379 14.6593 25.3245 14.7686 25.1825 14.7686H19.2544V15.075H25.1825Z" fill="white"/>
    <path d="M28.2912 2.31076C28.2912 2.31076 28.2912 5.11082 28.2912 5.38664C28.2912 5.66143 29.3587 6.07416 30.508 7.60445C31.6541 9.13371 31.8779 10.805 31.8779 11.9348C31.8779 12.1422 31.8779 12.3598 31.8779 12.5855C31.8779 13.178 31.8779 13.8288 31.8779 14.5255C31.8779 14.6593 31.7634 14.7686 31.6235 14.7686H25.6934C25.5544 14.7686 25.438 14.6593 25.438 14.5234V12.5865V2.31076H28.2912Z" fill="#BDEEED"/>
    <path d="M25.6934 15.0751H31.6235C31.7634 15.0751 31.8779 15.1854 31.8779 15.3212C31.8779 15.9393 31.8779 16.588 31.8779 17.2581C31.8779 17.394 31.7634 17.5033 31.6235 17.5033H25.6934C25.5544 17.5033 25.438 17.394 25.438 17.2571V15.3212C25.438 15.1864 25.5544 15.0751 25.6934 15.0751Z" fill="white"/>
    <path d="M25.6934 17.8098H31.6235C31.7634 17.8098 31.8779 17.9201 31.8779 18.0539C31.8779 18.6852 31.8779 19.3339 31.8779 19.9928C31.8779 20.1266 31.7634 20.237 31.6235 20.237H25.6934C25.5544 20.237 25.438 20.1266 25.438 19.9918V18.0539C25.438 17.9201 25.5544 17.8098 25.6934 17.8098Z" fill="white"/>
    <path d="M25.6934 20.5434H31.6235C31.7634 20.5434 31.8779 20.6527 31.8779 20.7876C31.8779 21.4291 31.8779 22.0758 31.8779 22.7255C31.8779 28.4635 31.8779 34.363 31.8779 36.78C31.8779 40.9418 30.3466 42.5947 28.6906 42.5947C27.0337 42.5947 26.9049 41.9817 25.438 41.9817V22.7255V20.7876C25.438 20.6527 25.5544 20.5434 25.6934 20.5434Z" fill="white"/>
    <path d="M25.6934 17.8098C25.5544 17.8098 25.438 17.9201 25.438 18.0539V17.2571C25.438 17.394 25.5544 17.5033 25.6934 17.5033H31.6235V17.8098H25.6934Z" fill="white"/>
    <path d="M25.6934 20.5434C25.5544 20.5434 25.438 20.6527 25.438 20.7876V19.9918C25.438 20.1266 25.5544 20.237 25.6934 20.237H31.6235V20.5434H25.6934Z" fill="white"/>
    <path d="M25.6934 15.075C25.5544 15.075 25.438 15.1864 25.438 15.3212V14.5234C25.438 14.6593 25.5544 14.7686 25.6934 14.7686H31.6235V15.075H25.6934Z" fill="white"/>
    <path d="M19 11.7448C19 11.9522 19 12.1697 19 12.3955C19 12.988 19 13.6388 19 14.3355C19 14.4693 19.1154 14.5786 19.2544 14.5786V14.885C19.1154 14.885 19 14.9954 19 15.1312C19 15.7493 19 16.398 19 17.0681C19 17.204 19.1154 17.3133 19.2544 17.3133V17.6197C19.1154 17.6197 19 17.7301 19 17.8639C19 18.4952 19 19.1439 19 19.8028C19 19.9366 19.1154 20.0469 19.2544 20.0469V20.3534C19.1154 20.3534 19 20.4627 19 20.5976C19 21.2391 19 21.8857 19 22.5354C19 28.2735 19 34.173 19 36.59C19 40.7518 20.5303 42.4046 22.1883 42.4046C23.8463 42.4046 23.9729 41.7917 25.4378 41.7917C26.9048 41.7917 27.0335 42.4046 28.6905 42.4046C30.3464 42.4046 31.8777 40.7518 31.8777 36.59C31.8777 34.173 31.8777 28.2735 31.8777 22.5354C31.8777 21.8857 31.8777 21.2391 31.8777 20.5976C31.8777 20.4627 31.7633 20.3534 31.6233 20.3534V20.0469C31.7633 20.0469 31.8777 19.9366 31.8777 19.8028C31.8777 19.1439 31.8777 18.4952 31.8777 17.8639C31.8777 17.7301 31.7633 17.6197 31.6233 17.6197V17.3133C31.7633 17.3133 31.8777 17.204 31.8777 17.0681C31.8777 16.398 31.8777 15.7493 31.8777 15.1312C31.8777 14.9954 31.7633 14.885 31.6233 14.885V14.5786C31.7633 14.5786 31.8777 14.4693 31.8777 14.3355C31.8777 13.6388 31.8777 12.988 31.8777 12.3955C31.8777 12.1697 31.8777 11.9522 31.8777 11.7448C31.8777 11.2381 31.8276 10.6221 31.6734 9.96014H19.2053C19.0511 10.6221 19 11.2381 19 11.7448Z" fill="#87E3FF"/>
    <path d="M30.6273 21.7938C30.7233 23.4906 30.7693 25.1874 30.8071 26.8852C30.8459 28.581 30.8428 30.2788 30.8622 31.9756C30.8428 33.6745 30.849 35.3692 30.805 37.0701C30.7632 37.9292 30.66 38.7904 30.3944 39.6158C30.2524 40.0244 30.0705 40.4259 29.7998 40.7691C29.5373 41.1093 29.1256 41.38 28.6904 41.3443C29.1256 41.3249 29.4739 41.0317 29.6997 40.6946C29.9296 40.3493 30.0705 39.9529 30.1747 39.5504C30.3862 38.7444 30.4475 37.8996 30.4444 37.066L30.3933 31.9756C30.4117 30.2788 30.4087 28.581 30.4485 26.8852C30.4863 25.1874 30.5323 23.4906 30.6273 21.7938Z" fill="white"/>
    <path d="M26.8489 5.38663C26.8969 5.78708 27.1043 6.12626 27.4077 6.35202C27.6968 6.59106 28.0564 6.7688 28.3914 6.99967C29.0677 7.44609 29.6541 8.07027 30.0678 8.77821C30.4785 9.49738 30.7165 10.3095 30.7635 11.1237C30.8074 11.945 30.7093 12.7234 30.6276 13.5192C30.5755 13.1239 30.552 12.7275 30.5142 12.3311C30.4907 11.9317 30.4734 11.5446 30.4059 11.1635C30.2782 10.4035 30.0474 9.66694 29.6622 9.01315C29.2853 8.34709 28.7704 7.78321 28.1759 7.28673C27.8848 7.03339 27.5425 6.8209 27.2514 6.5175C26.9674 6.21308 26.7876 5.78606 26.8489 5.38663Z" fill="white"/>
    <path d="M25.7513 -4.64709e-06C25.5796 -4.64709e-06 25.2977 -4.64709e-06 25.1271 -4.64709e-06H22.2657C22.0941 -4.64709e-06 21.9531 0.139954 21.9531 0.312597V2.78884C21.9531 2.96046 22.0941 3.10144 22.2657 3.10144H25.1271C25.2977 3.10144 25.5796 3.10144 25.7513 3.10144H28.6126C28.7843 3.10144 28.9232 2.96046 28.9232 2.78884V0.312597C28.9232 0.139954 28.7843 -4.64709e-06 28.6126 -4.64709e-06H25.7513Z" fill="white"/>
    <path d="M25.4379 3.83081H21.7256V3.36296H25.4379V3.83081Z" fill="#276B8A"/>
    <path d="M29.1524 3.83081H25.438V3.36296H29.1524V3.83081Z" fill="#276B8A"/>
    <path d="M21.2456 14.7154C22.6431 14.5316 24.0416 14.4897 25.4401 14.4815C26.8366 14.4887 28.2361 14.5305 29.6336 14.7154C28.2361 14.9014 26.8366 14.9433 25.4401 14.9504C24.0416 14.9422 22.6431 14.9003 21.2456 14.7154Z" fill="white"/>
    <path d="M21.2456 17.5523C22.6431 17.3685 24.0416 17.3266 25.4401 17.3184C26.8366 17.3245 28.2361 17.3674 29.6336 17.5523C28.2361 17.7383 26.8366 17.7801 25.4401 17.7873C24.0416 17.7791 22.6431 17.7372 21.2456 17.5523Z" fill="white"/>
    <path d="M21.2456 20.3892C22.6431 20.2043 24.0416 20.1624 25.4401 20.1542C26.8366 20.1614 28.2361 20.2032 29.6336 20.3892C28.2361 20.5741 26.8366 20.616 25.4401 20.6231C24.0416 20.6149 22.6431 20.573 21.2456 20.3892Z" fill="white"/>
    <path d="M28.6906 42.5947C27.0337 42.5947 26.9049 41.7881 25.438 41.7881V20.6231C25.439 20.6231 25.44 20.6231 25.44 20.6231C26.8365 20.616 28.236 20.5741 29.6335 20.3892C28.236 20.2033 26.8365 20.1614 25.44 20.1542C25.44 20.1542 25.439 20.1542 25.438 20.1542V17.7873C25.439 17.7873 25.44 17.7873 25.44 17.7873C26.8365 17.7801 28.236 17.7383 29.6335 17.5523C28.236 17.3674 26.8365 17.3245 25.44 17.3184C25.44 17.3184 25.439 17.3184 25.438 17.3184V14.9504C25.439 14.9504 25.44 14.9504 25.44 14.9504C26.8365 14.9433 28.236 14.9014 29.6335 14.7155C28.236 14.5306 26.8365 14.4887 25.44 14.4815C25.44 14.4815 25.439 14.4815 25.438 14.4815V10.1502H30.1637C30.2689 10.4791 30.3476 10.8193 30.4058 11.1635C30.4732 11.5446 30.4906 11.9317 30.5141 12.3312C30.5519 12.7275 30.5754 13.1239 30.6275 13.5192C30.7092 12.7235 30.8073 11.945 30.7633 11.1237C30.745 10.7968 30.6949 10.4699 30.6152 10.1502H31.6736C31.8278 10.8121 31.8779 11.4281 31.8779 11.9348C31.8779 12.1422 31.8779 12.3598 31.8779 12.5855C31.8779 13.178 31.8779 13.8288 31.8779 14.5255C31.8779 14.6593 31.7634 14.7686 31.6235 14.7686V15.0751C31.7634 15.0751 31.8779 15.1854 31.8779 15.3213C31.8779 15.9393 31.8779 16.588 31.8779 17.2581C31.8779 17.394 31.7634 17.5033 31.6235 17.5033V17.8098C31.7634 17.8098 31.8779 17.9201 31.8779 18.0539C31.8779 18.6852 31.8779 19.3339 31.8779 19.9928C31.8779 20.1266 31.7634 20.237 31.6235 20.237V20.5434C31.7634 20.5434 31.8779 20.6527 31.8779 20.7876C31.8779 21.4291 31.8779 22.0758 31.8779 22.7255C31.8779 28.4635 31.8779 34.363 31.8779 36.78C31.8779 40.9418 30.3466 42.5947 28.6906 42.5947ZM30.6275 21.7938C30.5325 23.4906 30.4865 25.1874 30.4487 26.8853C30.4089 28.581 30.4119 30.2788 30.3935 31.9756L30.4446 37.066C30.4477 37.8996 30.3864 38.7445 30.1749 39.5505C30.0707 39.953 29.9298 40.3493 29.6999 40.6946C29.4741 41.0317 29.1258 41.3249 28.6906 41.3443C28.7162 41.3474 28.7427 41.3474 28.7682 41.3474C29.1738 41.3474 29.5528 41.0889 29.8 40.7692C30.0707 40.4259 30.2526 40.0244 30.3946 39.6158C30.6602 38.7904 30.7633 37.9293 30.8052 37.0701C30.8492 35.3692 30.843 33.6745 30.8624 31.9756C30.843 30.2788 30.8461 28.581 30.8073 26.8853C30.7695 25.1874 30.7235 23.4906 30.6275 21.7938Z" fill="#3F9AC4"/>
    <path d="M28.7681 41.3474C28.7425 41.3474 28.716 41.3473 28.6904 41.3443C29.1256 41.3249 29.4739 41.0317 29.6997 40.6946C29.9296 40.3493 30.0705 39.9529 30.1747 39.5505C30.3862 38.7445 30.4475 37.8996 30.4444 37.066L30.3933 31.9756C30.4117 30.2788 30.4087 28.581 30.4485 26.8852C30.4863 25.1874 30.5323 23.4906 30.6273 21.7938C30.7233 23.4906 30.7693 25.1874 30.8071 26.8852C30.8459 28.581 30.8428 30.2788 30.8622 31.9756C30.8428 33.6745 30.849 35.3692 30.805 37.0701C30.7632 37.9292 30.66 38.7904 30.3944 39.6158C30.2524 40.0244 30.0705 40.4259 29.7998 40.7692C29.5526 41.0889 29.1736 41.3474 28.7681 41.3474Z" fill="#E2FAFA"/>
    <path d="M30.6274 13.5192C30.5753 13.1239 30.5518 12.7275 30.514 12.3311C30.4905 11.9317 30.4731 11.5446 30.4057 11.1635C30.3475 10.8193 30.2688 10.4791 30.1636 10.1501H30.6151C30.6948 10.4699 30.7448 10.7968 30.7632 11.1237C30.8072 11.945 30.7091 12.7234 30.6274 13.5192Z" fill="#E2FAFA"/>
    <path d="M25.44 14.9504C25.44 14.9504 25.439 14.9504 25.438 14.9504V14.4815C25.439 14.4815 25.44 14.4815 25.44 14.4815C26.8365 14.4887 28.236 14.5305 29.6335 14.7154C28.236 14.9014 26.8365 14.9433 25.44 14.9504Z" fill="#E2FAFA"/>
    <path d="M25.44 17.7873C25.44 17.7873 25.439 17.7873 25.438 17.7873V17.3184C25.439 17.3184 25.44 17.3184 25.44 17.3184C26.8365 17.3245 28.236 17.3674 29.6335 17.5523C28.236 17.7383 26.8365 17.7801 25.44 17.7873Z" fill="#E2FAFA"/>
    <path d="M25.44 20.6231C25.44 20.6231 25.439 20.6231 25.438 20.6231V20.1542C25.439 20.1542 25.44 20.1542 25.44 20.1542C26.8365 20.1614 28.236 20.2032 29.6335 20.3892C28.236 20.5741 26.8365 20.616 25.44 20.6231Z" fill="#E2FAFA"/>
    <path d="M38.5857 4.31076C38.5857 4.31076 38.5857 7.11082 38.5857 7.38664C38.5857 7.66143 37.5181 8.07416 36.3699 9.60445C35.2227 11.1337 35 12.805 35 13.9348C35 14.1422 35 14.3598 35 14.5855C35 15.178 35 15.8288 35 16.5255C35 16.6593 35.1154 16.7686 35.2544 16.7686H41.1824C41.3244 16.7686 41.4378 16.6593 41.4378 16.5234V14.5865V4.31076H38.5857Z" fill="#D6FEFD"/>
    <path d="M41.1824 17.0751H35.2544C35.1154 17.0751 35 17.1854 35 17.3212C35 17.9393 35 18.588 35 19.2581C35 19.394 35.1154 19.5033 35.2544 19.5033H41.1824C41.3244 19.5033 41.4378 19.394 41.4378 19.2571V17.3212C41.4378 17.1864 41.3244 17.0751 41.1824 17.0751Z" fill="white"/>
    <path d="M41.1824 19.8098H35.2544C35.1154 19.8098 35 19.9201 35 20.0539C35 20.6852 35 21.3339 35 21.9928C35 22.1266 35.1154 22.237 35.2544 22.237H41.1824C41.3244 22.237 41.4378 22.1266 41.4378 21.9918V20.0539C41.4378 19.9201 41.3244 19.8098 41.1824 19.8098Z" fill="white"/>
    <path d="M41.1824 22.5434H35.2544C35.1154 22.5434 35 22.6527 35 22.7876C35 23.4291 35 24.0758 35 24.7255C35 30.4635 35 36.363 35 38.78C35 42.9418 36.5303 44.5947 38.1883 44.5947C39.8463 44.5947 39.9729 43.9817 41.4378 43.9817V24.7255V22.7876C41.4378 22.6527 41.3244 22.5434 41.1824 22.5434Z" fill="white"/>
    <path d="M41.1825 19.8098C41.3245 19.8098 41.4379 19.9201 41.4379 20.0539V19.2571C41.4379 19.394 41.3245 19.5033 41.1825 19.5033H35.2544V19.8098H41.1825Z" fill="white"/>
    <path d="M41.1825 22.5434C41.3245 22.5434 41.4379 22.6527 41.4379 22.7876V21.9918C41.4379 22.1266 41.3245 22.237 41.1825 22.237H35.2544V22.5434H41.1825Z" fill="white"/>
    <path d="M41.1825 17.075C41.3245 17.075 41.4379 17.1864 41.4379 17.3212V16.5234C41.4379 16.6593 41.3245 16.7686 41.1825 16.7686H35.2544V17.075H41.1825Z" fill="white"/>
    <path d="M44.2912 4.31076C44.2912 4.31076 44.2912 7.11082 44.2912 7.38664C44.2912 7.66143 45.3587 8.07416 46.508 9.60445C47.6541 11.1337 47.8779 12.805 47.8779 13.9348C47.8779 14.1422 47.8779 14.3598 47.8779 14.5855C47.8779 15.178 47.8779 15.8288 47.8779 16.5255C47.8779 16.6593 47.7634 16.7686 47.6235 16.7686H41.6934C41.5544 16.7686 41.438 16.6593 41.438 16.5234V14.5865V4.31076H44.2912Z" fill="#BDEEED"/>
    <path d="M41.6934 17.0751H47.6235C47.7634 17.0751 47.8779 17.1854 47.8779 17.3212C47.8779 17.9393 47.8779 18.588 47.8779 19.2581C47.8779 19.394 47.7634 19.5033 47.6235 19.5033H41.6934C41.5544 19.5033 41.438 19.394 41.438 19.2571V17.3212C41.438 17.1864 41.5544 17.0751 41.6934 17.0751Z" fill="white"/>
    <path d="M41.6934 19.8098H47.6235C47.7634 19.8098 47.8779 19.9201 47.8779 20.0539C47.8779 20.6852 47.8779 21.3339 47.8779 21.9928C47.8779 22.1266 47.7634 22.237 47.6235 22.237H41.6934C41.5544 22.237 41.438 22.1266 41.438 21.9918V20.0539C41.438 19.9201 41.5544 19.8098 41.6934 19.8098Z" fill="white"/>
    <path d="M41.6934 22.5434H47.6235C47.7634 22.5434 47.8779 22.6527 47.8779 22.7876C47.8779 23.4291 47.8779 24.0758 47.8779 24.7255C47.8779 30.4635 47.8779 36.363 47.8779 38.78C47.8779 42.9418 46.3466 44.5947 44.6906 44.5947C43.0337 44.5947 42.9049 43.9817 41.438 43.9817V24.7255V22.7876C41.438 22.6527 41.5544 22.5434 41.6934 22.5434Z" fill="white"/>
    <path d="M41.6934 19.8098C41.5544 19.8098 41.438 19.9201 41.438 20.0539V19.2571C41.438 19.394 41.5544 19.5033 41.6934 19.5033H47.6235V19.8098H41.6934Z" fill="white"/>
    <path d="M41.6934 22.5434C41.5544 22.5434 41.438 22.6527 41.438 22.7876V21.9918C41.438 22.1266 41.5544 22.237 41.6934 22.237H47.6235V22.5434H41.6934Z" fill="white"/>
    <path d="M41.6934 17.075C41.5544 17.075 41.438 17.1864 41.438 17.3212V16.5234C41.438 16.6593 41.5544 16.7686 41.6934 16.7686H47.6235V17.075H41.6934Z" fill="white"/>
    <path d="M35 13.7448C35 13.9522 35 14.1697 35 14.3955C35 14.988 35 15.6388 35 16.3355C35 16.4693 35.1154 16.5786 35.2544 16.5786V16.885C35.1154 16.885 35 16.9954 35 17.1312C35 17.7493 35 18.398 35 19.0681C35 19.204 35.1154 19.3133 35.2544 19.3133V19.6197C35.1154 19.6197 35 19.7301 35 19.8639C35 20.4952 35 21.1439 35 21.8028C35 21.9366 35.1154 22.0469 35.2544 22.0469V22.3534C35.1154 22.3534 35 22.4627 35 22.5976C35 23.2391 35 23.8857 35 24.5354C35 30.2735 35 36.173 35 38.59C35 42.7518 36.5303 44.4046 38.1883 44.4046C39.8463 44.4046 39.9729 43.7917 41.4378 43.7917C42.9048 43.7917 43.0335 44.4046 44.6905 44.4046C46.3464 44.4046 47.8777 42.7518 47.8777 38.59C47.8777 36.173 47.8777 30.2735 47.8777 24.5354C47.8777 23.8857 47.8777 23.2391 47.8777 22.5976C47.8777 22.4627 47.7633 22.3534 47.6233 22.3534V22.0469C47.7633 22.0469 47.8777 21.9366 47.8777 21.8028C47.8777 21.1439 47.8777 20.4952 47.8777 19.8639C47.8777 19.7301 47.7633 19.6197 47.6233 19.6197V19.3133C47.7633 19.3133 47.8777 19.204 47.8777 19.0681C47.8777 18.398 47.8777 17.7493 47.8777 17.1312C47.8777 16.9954 47.7633 16.885 47.6233 16.885V16.5786C47.7633 16.5786 47.8777 16.4693 47.8777 16.3355C47.8777 15.6388 47.8777 14.988 47.8777 14.3955C47.8777 14.1697 47.8777 13.9522 47.8777 13.7448C47.8777 13.2381 47.8276 12.6221 47.6734 11.9601H35.2053C35.0511 12.6221 35 13.2381 35 13.7448Z" fill="#87E3FF"/>
    <path d="M42.8489 7.38663C42.8969 7.78708 43.1043 8.12626 43.4077 8.35202C43.6968 8.59106 44.0564 8.7688 44.3914 8.99967C45.0677 9.44609 45.6541 10.0703 46.0678 10.7782C46.4785 11.4974 46.7165 12.3095 46.7635 13.1237C46.8074 13.945 46.7093 14.7234 46.6276 15.5192C46.5755 15.1239 46.552 14.7275 46.5142 14.3311C46.4907 13.9317 46.4734 13.5446 46.4059 13.1635C46.2782 12.4035 46.0474 11.6669 45.6622 11.0131C45.2853 10.3471 44.7704 9.78321 44.1759 9.28673C43.8848 9.03339 43.5425 8.8209 43.2514 8.5175C42.9674 8.21308 42.7876 7.78606 42.8489 7.38663Z" fill="white"/>
    <path d="M41.7513 2C41.5796 2 41.2977 2 41.1271 2H38.2657C38.0941 2 37.9531 2.13995 37.9531 2.3126V4.78884C37.9531 4.96046 38.0941 5.10144 38.2657 5.10144H41.1271C41.2977 5.10144 41.5796 5.10144 41.7513 5.10144H44.6126C44.7843 5.10144 44.9232 4.96046 44.9232 4.78884V2.3126C44.9232 2.13995 44.7843 2 44.6126 2H41.7513Z" fill="white"/>
    <path d="M41.4379 5.83081H37.7256V5.36296H41.4379V5.83081Z" fill="#276B8A"/>
    <path d="M45.1524 5.83081H41.438V5.36296H45.1524V5.83081Z" fill="#276B8A"/>
    <path d="M37.2456 16.7154C38.6431 16.5316 40.0416 16.4897 41.4401 16.4815C42.8366 16.4887 44.2361 16.5305 45.6336 16.7154C44.2361 16.9014 42.8366 16.9433 41.4401 16.9504C40.0416 16.9422 38.6431 16.9003 37.2456 16.7154Z" fill="white"/>
    <path d="M37.2456 19.5523C38.6431 19.3685 40.0416 19.3266 41.4401 19.3184C42.8366 19.3245 44.2361 19.3674 45.6336 19.5523C44.2361 19.7383 42.8366 19.7801 41.4401 19.7873C40.0416 19.7791 38.6431 19.7372 37.2456 19.5523Z" fill="white"/>
    <path d="M37.2456 22.3892C38.6431 22.2043 40.0416 22.1624 41.4401 22.1542C42.8366 22.1614 44.2361 22.2032 45.6336 22.3892C44.2361 22.5741 42.8366 22.616 41.4401 22.6231C40.0416 22.6149 38.6431 22.573 37.2456 22.3892Z" fill="white"/>
    <path d="M44.6906 44.5947C43.0337 44.5947 42.9049 43.7881 41.438 43.7881V22.6231C41.439 22.6231 41.44 22.6231 41.44 22.6231C42.8365 22.616 44.236 22.5741 45.6335 22.3892C44.236 22.2033 42.8365 22.1614 41.44 22.1542C41.44 22.1542 41.439 22.1542 41.438 22.1542V19.7873C41.439 19.7873 41.44 19.7873 41.44 19.7873C42.8365 19.7801 44.236 19.7383 45.6335 19.5523C44.236 19.3674 42.8365 19.3245 41.44 19.3184C41.44 19.3184 41.439 19.3184 41.438 19.3184V16.9504C41.439 16.9504 41.44 16.9504 41.44 16.9504C42.8365 16.9433 44.236 16.9014 45.6335 16.7155C44.236 16.5306 42.8365 16.4887 41.44 16.4815C41.44 16.4815 41.439 16.4815 41.438 16.4815V12.1502H46.1637C46.2689 12.4791 46.3476 12.8193 46.4058 13.1635C46.4732 13.5446 46.4906 13.9317 46.5141 14.3312C46.5519 14.7275 46.5754 15.1239 46.6275 15.5192C46.7092 14.7235 46.8073 13.945 46.7633 13.1237C46.745 12.7968 46.6949 12.4699 46.6152 12.1502H47.6736C47.8278 12.8121 47.8779 13.4281 47.8779 13.9348C47.8779 14.1422 47.8779 14.3598 47.8779 14.5855C47.8779 15.178 47.8779 15.8288 47.8779 16.5255C47.8779 16.6593 47.7634 16.7686 47.6235 16.7686V17.0751C47.7634 17.0751 47.8779 17.1854 47.8779 17.3213C47.8779 17.9393 47.8779 18.588 47.8779 19.2581C47.8779 19.394 47.7634 19.5033 47.6235 19.5033V19.8098C47.7634 19.8098 47.8779 19.9201 47.8779 20.0539C47.8779 20.6852 47.8779 21.3339 47.8779 21.9928C47.8779 22.1266 47.7634 22.237 47.6235 22.237V22.5434C47.7634 22.5434 47.8779 22.6527 47.8779 22.7876C47.8779 23.4291 47.8779 24.0758 47.8779 24.7255C47.8779 30.4635 47.8779 36.363 47.8779 38.78C47.8779 42.9418 46.3466 44.5947 44.6906 44.5947ZM46.6275 23.7938C46.5325 25.4906 46.4865 27.1874 46.4487 28.8853C46.4089 30.581 46.4119 32.2788 46.3935 33.9756L46.4446 39.066C46.4477 39.8996 46.3864 40.7445 46.1749 41.5505C46.0707 41.953 45.9298 42.3493 45.6999 42.6946C45.4741 43.0317 45.1258 43.3249 44.6906 43.3443C44.7162 43.3474 44.7427 43.3474 44.7682 43.3474C45.1738 43.3474 45.5528 43.0889 45.8 42.7692C46.0707 42.4259 46.2526 42.0244 46.3946 41.6158C46.6602 40.7904 46.7633 39.9293 46.8052 39.0701C46.8492 37.3692 46.843 35.6745 46.8624 33.9756C46.843 32.2788 46.8461 30.581 46.8073 28.8853C46.7695 27.1874 46.7235 25.4906 46.6275 23.7938Z" fill="#3F9AC4"/>
    <path d="M41.44 16.9504C41.44 16.9504 41.439 16.9504 41.438 16.9504V16.4815C41.439 16.4815 41.44 16.4815 41.44 16.4815C42.8365 16.4887 44.236 16.5305 45.6335 16.7154C44.236 16.9014 42.8365 16.9433 41.44 16.9504Z" fill="#E2FAFA"/>
    <path d="M41.44 19.7873C41.44 19.7873 41.439 19.7873 41.438 19.7873V19.3184C41.439 19.3184 41.44 19.3184 41.44 19.3184C42.8365 19.3245 44.236 19.3674 45.6335 19.5523C44.236 19.7383 42.8365 19.7801 41.44 19.7873Z" fill="#E2FAFA"/>
    <path d="M41.44 22.6231C41.44 22.6231 41.439 22.6231 41.438 22.6231V22.1542C41.439 22.1542 41.44 22.1542 41.44 22.1542C42.8365 22.1614 44.236 22.2032 45.6335 22.3892C44.236 22.5741 42.8365 22.616 41.44 22.6231Z" fill="#E2FAFA"/>
    <path d="M32.5857 12.3108C32.5857 12.3108 32.5857 15.1108 32.5857 15.3866C32.5857 15.6614 31.5181 16.0742 30.3699 17.6044C29.2227 19.1337 29 20.805 29 21.9348C29 22.1422 29 22.3598 29 22.5855C29 23.178 29 23.8288 29 24.5255C29 24.6593 29.1154 24.7686 29.2544 24.7686H35.1824C35.3244 24.7686 35.4378 24.6593 35.4378 24.5234V22.5865V12.3108H32.5857Z" fill="#D6FEFD"/>
    <path d="M35.1824 25.0751H29.2544C29.1154 25.0751 29 25.1854 29 25.3212C29 25.9393 29 26.588 29 27.2581C29 27.394 29.1154 27.5033 29.2544 27.5033H35.1824C35.3244 27.5033 35.4378 27.394 35.4378 27.2571V25.3212C35.4378 25.1864 35.3244 25.0751 35.1824 25.0751Z" fill="white"/>
    <path d="M35.1824 27.8098H29.2544C29.1154 27.8098 29 27.9201 29 28.0539C29 28.6852 29 29.3339 29 29.9928C29 30.1266 29.1154 30.237 29.2544 30.237H35.1824C35.3244 30.237 35.4378 30.1266 35.4378 29.9918V28.0539C35.4378 27.9201 35.3244 27.8098 35.1824 27.8098Z" fill="white"/>
    <path d="M35.1824 30.5434H29.2544C29.1154 30.5434 29 30.6527 29 30.7876C29 31.4291 29 32.0758 29 32.7255C29 38.4635 29 44.363 29 46.78C29 50.9418 30.5303 52.5947 32.1883 52.5947C33.8463 52.5947 33.9729 51.9817 35.4378 51.9817V32.7255V30.7876C35.4378 30.6527 35.3244 30.5434 35.1824 30.5434Z" fill="white"/>
    <path d="M35.1825 27.8098C35.3245 27.8098 35.4379 27.9201 35.4379 28.0539V27.2571C35.4379 27.394 35.3245 27.5033 35.1825 27.5033H29.2544V27.8098H35.1825Z" fill="white"/>
    <path d="M35.1825 30.5434C35.3245 30.5434 35.4379 30.6527 35.4379 30.7876V29.9918C35.4379 30.1266 35.3245 30.237 35.1825 30.237H29.2544V30.5434H35.1825Z" fill="white"/>
    <path d="M35.1825 25.075C35.3245 25.075 35.4379 25.1864 35.4379 25.3212V24.5234C35.4379 24.6593 35.3245 24.7686 35.1825 24.7686H29.2544V25.075H35.1825Z" fill="white"/>
    <path d="M38.2912 12.3108C38.2912 12.3108 38.2912 15.1108 38.2912 15.3866C38.2912 15.6614 39.3587 16.0742 40.508 17.6044C41.6541 19.1337 41.8779 20.805 41.8779 21.9348C41.8779 22.1422 41.8779 22.3598 41.8779 22.5855C41.8779 23.178 41.8779 23.8288 41.8779 24.5255C41.8779 24.6593 41.7634 24.7686 41.6235 24.7686H35.6934C35.5544 24.7686 35.438 24.6593 35.438 24.5234V22.5865V12.3108H38.2912Z" fill="#BDEEED"/>
    <path d="M35.6934 25.0751H41.6235C41.7634 25.0751 41.8779 25.1854 41.8779 25.3212C41.8779 25.9393 41.8779 26.588 41.8779 27.2581C41.8779 27.394 41.7634 27.5033 41.6235 27.5033H35.6934C35.5544 27.5033 35.438 27.394 35.438 27.2571V25.3212C35.438 25.1864 35.5544 25.0751 35.6934 25.0751Z" fill="white"/>
    <path d="M35.6934 27.8098H41.6235C41.7634 27.8098 41.8779 27.9201 41.8779 28.0539C41.8779 28.6852 41.8779 29.3339 41.8779 29.9928C41.8779 30.1266 41.7634 30.237 41.6235 30.237H35.6934C35.5544 30.237 35.438 30.1266 35.438 29.9918V28.0539C35.438 27.9201 35.5544 27.8098 35.6934 27.8098Z" fill="white"/>
    <path d="M35.6934 30.5434H41.6235C41.7634 30.5434 41.8779 30.6527 41.8779 30.7876C41.8779 31.4291 41.8779 32.0758 41.8779 32.7255C41.8779 38.4635 41.8779 44.363 41.8779 46.78C41.8779 50.9418 40.3466 52.5947 38.6906 52.5947C37.0337 52.5947 36.9049 51.9817 35.438 51.9817V32.7255V30.7876C35.438 30.6527 35.5544 30.5434 35.6934 30.5434Z" fill="white"/>
    <path d="M35.6934 27.8098C35.5544 27.8098 35.438 27.9201 35.438 28.0539V27.2571C35.438 27.394 35.5544 27.5033 35.6934 27.5033H41.6235V27.8098H35.6934Z" fill="white"/>
    <path d="M35.6934 30.5434C35.5544 30.5434 35.438 30.6527 35.438 30.7876V29.9918C35.438 30.1266 35.5544 30.237 35.6934 30.237H41.6235V30.5434H35.6934Z" fill="white"/>
    <path d="M35.6934 25.075C35.5544 25.075 35.438 25.1864 35.438 25.3212V24.5234C35.438 24.6593 35.5544 24.7686 35.6934 24.7686H41.6235V25.075H35.6934Z" fill="white"/>
    <path d="M29 21.7448C29 21.9522 29 22.1697 29 22.3955C29 22.988 29 23.6388 29 24.3355C29 24.4693 29.1154 24.5786 29.2544 24.5786V24.885C29.1154 24.885 29 24.9954 29 25.1312C29 25.7493 29 26.398 29 27.0681C29 27.204 29.1154 27.3133 29.2544 27.3133V27.6197C29.1154 27.6197 29 27.7301 29 27.8639C29 28.4952 29 29.1439 29 29.8028C29 29.9366 29.1154 30.0469 29.2544 30.0469V30.3534C29.1154 30.3534 29 30.4627 29 30.5976C29 31.2391 29 31.8857 29 32.5354C29 38.2735 29 44.173 29 46.59C29 50.7518 30.5303 52.4046 32.1883 52.4046C33.8463 52.4046 33.9729 51.7917 35.4378 51.7917C36.9048 51.7917 37.0335 52.4046 38.6905 52.4046C40.3464 52.4046 41.8777 50.7518 41.8777 46.59C41.8777 44.173 41.8777 38.2735 41.8777 32.5354C41.8777 31.8857 41.8777 31.2391 41.8777 30.5976C41.8777 30.4627 41.7633 30.3534 41.6233 30.3534V30.0469C41.7633 30.0469 41.8777 29.9366 41.8777 29.8028C41.8777 29.1439 41.8777 28.4952 41.8777 27.8639C41.8777 27.7301 41.7633 27.6197 41.6233 27.6197V27.3133C41.7633 27.3133 41.8777 27.204 41.8777 27.0681C41.8777 26.398 41.8777 25.7493 41.8777 25.1312C41.8777 24.9954 41.7633 24.885 41.6233 24.885V24.5786C41.7633 24.5786 41.8777 24.4693 41.8777 24.3355C41.8777 23.6388 41.8777 22.988 41.8777 22.3955C41.8777 22.1697 41.8777 21.9522 41.8777 21.7448C41.8777 21.2381 41.8276 20.6221 41.6734 19.9601H29.2053C29.0511 20.6221 29 21.2381 29 21.7448Z" fill="#87E3FF"/>
    <path d="M40.6273 31.7938C40.7233 33.4906 40.7693 35.1874 40.8071 36.8852C40.8459 38.581 40.8428 40.2788 40.8622 41.9756C40.8428 43.6745 40.849 45.3692 40.805 47.0701C40.7632 47.9292 40.66 48.7904 40.3944 49.6158C40.2524 50.0244 40.0705 50.4259 39.7998 50.7691C39.5373 51.1093 39.1256 51.38 38.6904 51.3443C39.1256 51.3249 39.4739 51.0317 39.6997 50.6946C39.9296 50.3493 40.0705 49.9529 40.1747 49.5504C40.3862 48.7444 40.4475 47.8996 40.4444 47.066L40.3933 41.9756C40.4117 40.2788 40.4087 38.581 40.4485 36.8852C40.4863 35.1874 40.5323 33.4906 40.6273 31.7938Z" fill="white"/>
    <path d="M36.8489 15.3866C36.8969 15.7871 37.1043 16.1263 37.4077 16.352C37.6968 16.5911 38.0564 16.7688 38.3914 16.9997C39.0677 17.4461 39.6541 18.0703 40.0678 18.7782C40.4785 19.4974 40.7165 20.3095 40.7635 21.1237C40.8074 21.945 40.7093 22.7234 40.6276 23.5192C40.5755 23.1239 40.552 22.7275 40.5142 22.3311C40.4907 21.9317 40.4734 21.5446 40.4059 21.1635C40.2782 20.4035 40.0474 19.6669 39.6622 19.0131C39.2853 18.3471 38.7704 17.7832 38.1759 17.2867C37.8848 17.0334 37.5425 16.8209 37.2514 16.5175C36.9674 16.2131 36.7876 15.7861 36.8489 15.3866Z" fill="white"/>
    <path d="M35.7513 10C35.5796 10 35.2977 10 35.1271 10H32.2657C32.0941 10 31.9531 10.14 31.9531 10.3126V12.7888C31.9531 12.9605 32.0941 13.1014 32.2657 13.1014H35.1271C35.2977 13.1014 35.5796 13.1014 35.7513 13.1014H38.6126C38.7843 13.1014 38.9232 12.9605 38.9232 12.7888V10.3126C38.9232 10.14 38.7843 10 38.6126 10H35.7513Z" fill="white"/>
    <path d="M35.4379 13.8308H31.7256V13.363H35.4379V13.8308Z" fill="#276B8A"/>
    <path d="M39.1524 13.8308H35.438V13.363H39.1524V13.8308Z" fill="#276B8A"/>
    <path d="M31.2456 24.7154C32.6431 24.5316 34.0416 24.4897 35.4401 24.4815C36.8366 24.4887 38.2361 24.5305 39.6336 24.7154C38.2361 24.9014 36.8366 24.9433 35.4401 24.9504C34.0416 24.9422 32.6431 24.9003 31.2456 24.7154Z" fill="white"/>
    <path d="M31.2456 27.5523C32.6431 27.3685 34.0416 27.3266 35.4401 27.3184C36.8366 27.3245 38.2361 27.3674 39.6336 27.5523C38.2361 27.7383 36.8366 27.7801 35.4401 27.7873C34.0416 27.7791 32.6431 27.7372 31.2456 27.5523Z" fill="white"/>
    <path d="M31.2456 30.3892C32.6431 30.2043 34.0416 30.1624 35.4401 30.1542C36.8366 30.1614 38.2361 30.2032 39.6336 30.3892C38.2361 30.5741 36.8366 30.616 35.4401 30.6231C34.0416 30.6149 32.6431 30.573 31.2456 30.3892Z" fill="white"/>
    <path d="M38.6906 52.5947C37.0337 52.5947 36.9049 51.7881 35.438 51.7881V30.6231C35.439 30.6231 35.44 30.6231 35.44 30.6231C36.8365 30.616 38.236 30.5741 39.6335 30.3892C38.236 30.2033 36.8365 30.1614 35.44 30.1542C35.44 30.1542 35.439 30.1542 35.438 30.1542V27.7873C35.439 27.7873 35.44 27.7873 35.44 27.7873C36.8365 27.7801 38.236 27.7383 39.6335 27.5523C38.236 27.3674 36.8365 27.3245 35.44 27.3184C35.44 27.3184 35.439 27.3184 35.438 27.3184V24.9504C35.439 24.9504 35.44 24.9504 35.44 24.9504C36.8365 24.9433 38.236 24.9014 39.6335 24.7155C38.236 24.5306 36.8365 24.4887 35.44 24.4815C35.44 24.4815 35.439 24.4815 35.438 24.4815V20.1502H40.1637C40.2689 20.4791 40.3476 20.8193 40.4058 21.1635C40.4732 21.5446 40.4906 21.9317 40.5141 22.3312C40.5519 22.7275 40.5754 23.1239 40.6275 23.5192C40.7092 22.7235 40.8073 21.945 40.7633 21.1237C40.745 20.7968 40.6949 20.4699 40.6152 20.1502H41.6736C41.8278 20.8121 41.8779 21.4281 41.8779 21.9348C41.8779 22.1422 41.8779 22.3598 41.8779 22.5855C41.8779 23.178 41.8779 23.8288 41.8779 24.5255C41.8779 24.6593 41.7634 24.7686 41.6235 24.7686V25.0751C41.7634 25.0751 41.8779 25.1854 41.8779 25.3213C41.8779 25.9393 41.8779 26.588 41.8779 27.2581C41.8779 27.394 41.7634 27.5033 41.6235 27.5033V27.8098C41.7634 27.8098 41.8779 27.9201 41.8779 28.0539C41.8779 28.6852 41.8779 29.3339 41.8779 29.9928C41.8779 30.1266 41.7634 30.237 41.6235 30.237V30.5434C41.7634 30.5434 41.8779 30.6527 41.8779 30.7876C41.8779 31.4291 41.8779 32.0758 41.8779 32.7255C41.8779 38.4635 41.8779 44.363 41.8779 46.78C41.8779 50.9418 40.3466 52.5947 38.6906 52.5947ZM40.8462 40C40.7512 41.6968 38.0378 39.3022 38 41C37.9602 42.6958 40.4119 40.2788 40.3935 41.9756L40.4446 47.066C40.4477 47.8996 40.3864 48.7445 40.1749 49.5505C40.0707 49.953 39.9298 50.3493 39.6999 50.6946C39.4741 51.0317 39.1258 51.3249 38.6906 51.3443C38.7162 51.3474 38.7427 51.3474 38.7682 51.3474C39.1738 51.3474 39.5528 51.0889 39.8 50.7692C40.0707 50.4259 40.2526 50.0244 40.3946 49.6158C40.6602 48.7904 40.7633 47.9293 40.8052 47.0701C40.8492 45.3692 40.843 43.6745 40.8624 41.9756C40.843 40.2788 41.5388 42.1958 41.5 40.5C41.4622 38.8022 40.9423 41.6968 40.8462 40Z" fill="#3F9AC4"/>
    <path d="M40.6274 23.5192C40.5753 23.1239 40.5518 22.7275 40.514 22.3311C40.4905 21.9317 40.4731 21.5446 40.4057 21.1635C40.3475 20.8193 40.2688 20.4791 40.1636 20.1501H40.6151C40.6948 20.4699 40.7448 20.7968 40.7632 21.1237C40.8072 21.945 40.7091 22.7234 40.6274 23.5192Z" fill="#E2FAFA"/>
    <path d="M35.44 24.9504C35.44 24.9504 35.439 24.9504 35.438 24.9504V24.4815C35.439 24.4815 35.44 24.4815 35.44 24.4815C36.8365 24.4887 38.236 24.5305 39.6335 24.7154C38.236 24.9014 36.8365 24.9433 35.44 24.9504Z" fill="#E2FAFA"/>
    <path d="M35.44 27.7873C35.44 27.7873 35.439 27.7873 35.438 27.7873V27.3184C35.439 27.3184 35.44 27.3184 35.44 27.3184C36.8365 27.3245 38.236 27.3674 39.6335 27.5523C38.236 27.7383 36.8365 27.7801 35.44 27.7873Z" fill="#E2FAFA"/>
    <path d="M35.44 30.6231C35.44 30.6231 35.439 30.6231 35.438 30.6231V30.1542C35.439 30.1542 35.44 30.1542 35.44 30.1542C36.8365 30.1614 38.236 30.2032 39.6335 30.3892C38.236 30.5741 36.8365 30.616 35.44 30.6231Z" fill="#E2FAFA"/>
</svg>