<svg width="12" height="9" viewBox="0 0 12 9" fill="none" xmlns="http://www.w3.org/2000/svg">
<path d="M4.67789 8.5C4.586 8.49971 4.49515 8.48069 4.41099 8.44412C4.32683 8.40755 4.25116 8.35422 4.18867 8.28744L0.931657 4.85333C0.809906 4.72472 0.744684 4.55345 0.750339 4.37719C0.755995 4.20092 0.832065 4.0341 0.961815 3.91343C1.09156 3.79275 1.26437 3.72811 1.4422 3.73371C1.62004 3.73932 1.78835 3.81472 1.9101 3.94332L4.67119 6.85933L10.3073 0.74833C10.3645 0.677736 10.4356 0.619477 10.5164 0.577131C10.5971 0.534785 10.6857 0.509246 10.7768 0.502082C10.8679 0.494919 10.9594 0.506283 11.0459 0.535475C11.1324 0.564667 11.2119 0.611072 11.2796 0.67184C11.3473 0.732607 11.4018 0.806454 11.4397 0.888844C11.4776 0.971235 11.498 1.06043 11.4999 1.15095C11.5017 1.24147 11.4848 1.33141 11.4503 1.41523C11.4158 1.49906 11.3644 1.57501 11.2991 1.63841L5.17382 8.2808C5.11192 8.34879 5.03651 8.40336 4.95232 8.44108C4.86813 8.4788 4.77698 8.49886 4.68459 8.5H4.67789Z" fill="white"/>
</svg>
